<svg width="26" height="22" viewBox="0 0 26 22" fill="none" xmlns="http://www.w3.org/2000/svg">
<path d="M23.4193 2.27893C22.4858 3.22107 21.6224 4.35164 20.829 5.67064C20.0823 6.98963 19.5923 8.30863 19.3589 9.62763C21.0857 9.62763 22.5092 10.1223 23.6293 11.1115C24.796 12.1008 25.3794 13.4904 25.3794 15.2805C25.3794 17.0234 24.8427 18.4838 23.7693 19.6614C22.7425 20.792 21.3891 21.3573 19.7089 21.3573C18.0288 21.3573 16.652 20.7685 15.5786 19.5908C14.5518 18.366 14.0385 16.8821 14.0385 15.1392C14.0385 12.2185 14.7385 9.41565 16.1386 6.73055C17.5388 3.99834 19.3122 1.87852 21.4591 0.371094L23.4193 2.27893ZM9.90813 2.27893C8.97472 3.22107 8.11131 4.35164 7.31791 5.67064C6.57118 6.98963 6.08114 8.30863 5.84779 9.62763C7.5746 9.62763 8.99805 10.1223 10.1181 11.1115C11.2849 12.1008 11.8683 13.4904 11.8683 15.2805C11.8683 17.0234 11.3316 18.4838 10.2582 19.6614C9.2314 20.792 7.87796 21.3573 6.19782 21.3573C4.51768 21.3573 3.1409 20.7685 2.06747 19.5908C1.04072 18.366 0.527344 16.8821 0.527344 15.1392C0.527344 12.2185 1.2274 9.41565 2.62752 6.73055C4.02764 3.99834 5.80112 1.87852 7.94796 0.371094L9.90813 2.27893Z" fill="#957DF2"/>
</svg>
